<svg aria-hidden="true" fill="none" focusable="false" height="24" viewBox="0 0 24 24" width="24" xmlns="http://www.w3.org/2000/svg" xmlns:xlink="http://www.w3.org/1999/xlink" class="css-k9fw9"><defs><symbol id="arrowRight" viewBox="0 0 24 24">
      <path fill="#5a1f06" d="m13.7 20.7 8-8a1 1 0 0 0 0-1.4l-8-8a1 1 0 1 0-1.4 1.4l6.29 6.3H2.86c-.47 0-.86.45-.86 1s.39 1 .86 1H18.6l-6.3 6.3a1 1 0 0 0 1.42 1.4Z"></path>
    </symbol></defs><g fill="none">
      <path fill="#5a1f06" d="m13.7 20.7 8-8a1 1 0 0 0 0-1.4l-8-8a1 1 0 1 0-1.4 1.4l6.29 6.3H2.86c-.47 0-.86.45-.86 1s.39 1 .86 1H18.6l-6.3 6.3a1 1 0 0 0 1.42 1.4Z"></path>
    </g></svg>