<svg aria-hidden="true" fill="none" focusable="false" height="24" viewBox="0 0 24 24" width="24" xmlns="http://www.w3.org/2000/svg" xmlns:xlink="http://www.w3.org/1999/xlink" class="css-84d4bu"><defs><symbol id="bagEmpty" viewBox="0 0 24 24">
      <path stroke="#5a1f06" stroke-width="2" d="M4.13 8.4A1.5 1.5 0 0 1 5.63 7h12.74c.79 0 1.44.6 1.5 1.4l.94 13a1.5 1.5 0 0 1-1.5 1.6H4.7a1.5 1.5 0 0 1-1.5-1.6l.94-13ZM16 5.18A4.1 4.1 0 0 0 12 1C9.8 1 8 2.87 8 5.18"></path>
    </symbol></defs><g fill="none">
      <path stroke="#5a1f06" stroke-width="2" d="M4.13 8.4A1.5 1.5 0 0 1 5.63 7h12.74c.79 0 1.44.6 1.5 1.4l.94 13a1.5 1.5 0 0 1-1.5 1.6H4.7a1.5 1.5 0 0 1-1.5-1.6l.94-13ZM16 5.18A4.1 4.1 0 0 0 12 1C9.8 1 8 2.87 8 5.18"></path>
    </g></svg>