<svg aria-hidden="true" focusable="false" viewBox="0 0 42 42" xmlns="http://www.w3.org/2000/svg" xmlns:xlink="http://www.w3.org/1999/xlink" class="css-11omhyd"><g class="css-oro983"><path d="M32.12 18.66c1.85 6.8 4.5 16.23 4.91 17.62l.21.72.5 1.74-8.3-3-8.64-3.1a56.91 56.91 0 0 0 7.32-8.55 70.8 70.8 0 0 1 4.1-5.43h-.1Zm.45-2.83a.79.79 0 0 0-.43.08 1.1 1.1 0 0 0-.49.33 70.21 70.21 0 0 0-5.18 6.72 54.72 54.72 0 0 1-8.1 9.3 1 1 0 0 0 .35 1.7l10.1 3.64 10.3 3.75a1 1 0 0 0 .34.07.81.81 0 0 0 .75-.5c.08-.16.1-.34.06-.51-.29-1.45-.91-3.45-1.27-4.7-.45-1.54-3.47-12.27-5.3-19.06a1.24 1.24 0 0 0-1.18-.82h.05Z"></path><path d="M25.75 6.2a1 1 0 0 1 0 1.42 6.74 6.74 0 0 0-1.63 5.76 13 13 0 0 0 1.78 5.08 1 1 0 0 1-.32 1.37 1 1 0 0 1-1.46-.31 15.1 15.1 0 0 1-2-5.91 8.7 8.7 0 0 1 2.2-7.31 1 1 0 0 1 1.36-.1h.07ZM9.85 19.83c6.07-1.34 10.71.92 12.37 2.35a1 1 0 0 1 .11 1.4 1 1 0 0 1-1.4.1c-1.23-1.05-5.24-3.1-10.64-1.91A1 1 0 0 1 9 21.2a1 1 0 0 1 .6-1.28h.14l.11-.1Zm3.37-18.77a1 1 0 0 1 .57 1.29L12.5 5.72h1.88a1.5 1.5 0 0 1 1.3 2.27l-1.1 1.86h2.2a1.51 1.51 0 0 1 1.46 1.55c0 .24-.06.49-.2.7L17 14h3.12a1 1 0 1 1 0 2h-4a1.51 1.51 0 0 1-1.51-1.5c0-.26.07-.53.2-.75l1.1-1.9h-2.18a1.51 1.51 0 0 1-1.51-1.48c0-.27.07-.54.2-.76l1.1-1.88h-1.73a1.52 1.52 0 0 1-1.5-1.51c0-.17.04-.33.09-.48l1.55-4a1 1 0 0 1 1.26-.68h.03Zm5.3 28.56a1 1 0 0 1-1.41 0v-.05l-2.47-2.74-.86 1.66a1.53 1.53 0 0 1-2 .63c-.22-.13-.41-.3-.55-.51l-1.11-1.86-1 1.93a1.52 1.52 0 0 1-2 .64c-.23-.13-.42-.3-.56-.52l-1.3-1.81-1.4 2.69a1 1 0 0 1-1.34.44 1 1 0 0 1-.4-1.35v-.06l1.74-3.5a1.48 1.48 0 0 1 2-.63c.23.12.42.3.57.5l1.18 1.87 1-1.93a1.49 1.49 0 0 1 2.57-.07l1.2 1.86.79-1.53a1.5 1.5 0 0 1 2.44-.33l3 3.26a1 1 0 0 1-.1 1.4Z"></path><path d="M7.08 15.93a1.98 1.98 0 1 0 0-3.96 1.98 1.98 0 0 0 0 3.96Zm23.45-4.96a1.46 1.46 0 1 0 0-2.92 1.46 1.46 0 0 0 0 2.92Z"></path><path d="M33.6 16.79a2006.65 2006.65 0 0 0 5.66 20c.34 1.14.75 2.5 1 3.6a.8.8 0 0 1-.56 1 .9.9 0 0 1-.5 0l-1.84-.64.76-4.98-1.19-6-1.67 10.13.6.26-3.3-1.23 2.7-10.27-1.83-6.32-4 11.15-1.76 3.66-2.3-.81 7-17.31s-.37-.75-1.83.74-6.23 7.8-6.23 7.8l-2.86 7.34-2.88-.9a1 1 0 0 1-.32-1.7 54.11 54.11 0 0 0 8.1-9.1 60.17 60.17 0 0 1 4.5-5.8l.8-.93a1.16 1.16 0 0 1 1.63-.12c.14.11.25.26.32.43Z"></path></g><g class="css-bvxv3d"><path d="M25.75 6.21a1 1 0 0 1 0 1.41 6.74 6.74 0 0 0-1.63 5.76 13 13 0 0 0 1.83 5.08 1 1 0 0 1-.32 1.37 1 1 0 0 1-1.4-.21l-.06-.1a15.14 15.14 0 0 1-2-5.91 8.71 8.71 0 0 1 2.2-7.31 1 1 0 0 1 1.36-.09h.07-.05ZM9.85 19.83c6.07-1.34 10.7.92 12.37 2.35a1 1 0 0 1-.58 1.75 1 1 0 0 1-.72-.24c-1.22-1.06-5.23-3.11-10.63-1.92a1 1 0 1 1-.7-1.84h.15l.1-.1Z" fill="#5A1F06"></path><path d="M13.22 1.06a1 1 0 0 1 .57 1.29L12.5 5.72h1.88a1.5 1.5 0 0 1 1.35 2.27L14.6 9.85h2.19a1.51 1.51 0 0 1 1.46 1.55c0 .25-.06.5-.2.71L17 14h3.12a1 1 0 0 1 0 2h-4a1.5 1.5 0 0 1-1.51-1.49c0-.27.07-.53.2-.76l1.14-1.9h-2.22a1.5 1.5 0 0 1-1.51-1.49c0-.27.07-.53.2-.76l1.1-1.88h-1.73a1.52 1.52 0 0 1-1.5-1.51 2 2 0 0 1 .09-.48l1.57-4A1 1 0 0 1 13.17 1l.05.06Zm5.3 28.56a1 1 0 0 1-1.41 0v-.05l-2.47-2.74-.86 1.66a1.53 1.53 0 0 1-2 .63c-.22-.12-.41-.3-.55-.51l-1.11-1.86-1 1.93a1.52 1.52 0 0 1-2 .64c-.23-.12-.42-.3-.56-.52L5.26 27l-1.4 2.69a1 1 0 0 1-1.34.44 1 1 0 0 1-.4-1.35v-.06l1.74-3.5a1.48 1.48 0 0 1 2-.63c.23.12.42.3.57.51L7.6 27l1-1.93a1.49 1.49 0 0 1 2.57-.07l1.2 1.86.79-1.53A1.5 1.5 0 0 1 15.6 25l3 3.26a1 1 0 0 1-.1 1.36Z" fill="#FA6400"></path><path d="M7.08 15.92a1.98 1.98 0 1 0 0-3.96 1.98 1.98 0 0 0 0 3.96Z" fill="#5A1F06"></path><path d="M30.53 10.96a1.46 1.46 0 1 0 0-2.92 1.46 1.46 0 0 0 0 2.92Z" fill="#FA6400"></path><path d="M38.95 35.77c-.46-1.55-3.48-12.28-5.32-19.07a1.25 1.25 0 0 0-1.51-.7c-.2.07-.36.18-.5.33A73.31 73.31 0 0 0 26.43 23a54.14 54.14 0 0 1-8.13 9.3 1 1 0 0 0-.09 1.41c.12.13.28.23.45.28l10.14 3.65 10.32 3.76a.84.84 0 0 0 1.09-.4 1 1 0 0 0 .06-.53c-.32-1.47-.94-3.47-1.32-4.7Z" fill="#5A1F06"></path><path d="m21.04 34.88 3.4-9.18s5.16-7.49 7-9.3c1-1.29 1.88-.25 1.88-.25l-8 20.26-4.28-1.53Zm6.82 2.47 2.26-5.14 4.34-12.71 2 7.3-3.34 12.46-5.26-1.91Zm7.54 2.73 2.18-9.17 1.66 5.78-1 4.43-2.84-1.04Z" fill="#FA6400"></path></g></svg>