<svg fill="none" focusable="false" height="24" role="img" viewBox="0 0 24 24" width="24" xmlns="http://www.w3.org/2000/svg" xmlns:xlink="http://www.w3.org/1999/xlink" class="css-k9fw9" aria-labelledby="d6483c76-8bf2-43e5-8f2f-35c600c971c8"><defs><symbol id="flagUnitedKingdom" viewBox="0 0 24 24">
      <path fill="#fff" d="M0 0h24v24H0z"></path>
      <path fill="#0037a6" d="M0 3.2v5.1h5.4zm0 12.5V21l5.5-5.3zM15.2 24h6.5l-6.5-6.3zM8.8 0H2.2l6.6 6.4zm0 24v-6.2L2.3 24zm13-24h-6.6v6.3zM24 8.3V3.2l-5.4 5.1zm0 12.6v-5.2h-5.5z"></path>
      <path fill="#f20000" d="M8.8 16.9v-1.2h-.6L0 23.6v.4h1.4zm6.4-8.6h.7L24 .5V0h-1.3l-7.5 7.2zm.6 7.4 8.2 7.8v-1.7l-6.4-6.1zM8.1 8.3 0 .6v1.7l6.2 6z"></path>
      <path fill="#f20000" d="M24 9.8H13.9V0h-3.8v9.8H0v4.4h10.1V24h3.8v-9.8H24z"></path>
    </symbol></defs><title id="d6483c76-8bf2-43e5-8f2f-35c600c971c8">change locale</title><g fill="none">
      <path fill="#-" d="M0 0h24v24H0z"></path>
      <path fill="#0037a6" d="M0 3.2v5.1h5.4zm0 12.5V21l5.5-5.3zM15.2 24h6.5l-6.5-6.3zM8.8 0H2.2l6.6 6.4zm0 24v-6.2L2.3 24zm13-24h-6.6v6.3zM24 8.3V3.2l-5.4 5.1zm0 12.6v-5.2h-5.5z"></path>
      <path fill="#f20000" d="M8.8 16.9v-1.2h-.6L0 23.6v.4h1.4zm6.4-8.6h.7L24 .5V0h-1.3l-7.5 7.2zm.6 7.4 8.2 7.8v-1.7l-6.4-6.1zM8.1 8.3 0 .6v1.7l6.2 6z"></path>
      <path fill="#f20000" d="M24 9.8H13.9V0h-3.8v9.8H0v4.4h10.1V24h3.8v-9.8H24z"></path>
    </g></svg>