<svg aria-hidden="true" focusable="false" viewBox="0 0 42 42" xmlns="http://www.w3.org/2000/svg" xmlns:xlink="http://www.w3.org/1999/xlink" class="css-11omhyd"><g class="css-oro983"><path d="M26.6 19.11a4 4 0 1 1 0-8 4 4 0 0 1 0 8Zm0-6a2 2 0 1 0 0 4 2 2 0 0 0 0-4Z"></path><path d="M39.2 4.36a1 1 0 0 0-.8-.36h-.92c-3.41.11-10.47.29-16.27 4.21a22.4 22.4 0 0 0-6.26 6.71A9.42 9.42 0 0 0 4.5 21.54a1 1 0 0 0 .32 1.11 1 1 0 0 0 1.15.06c1.57-1 4.06-1.92 5.35-1.37L9.5 26.48a1 1 0 0 0 .27 1.08l2.5 2.26a1 1 0 0 0 .93.29l5.16-1.13c.1 1.49-.17 3.81-1.9 5.1a1 1 0 0 0 .6 1.8h.19c2.6-.38 4.95-1.72 6.59-3.77a7.91 7.91 0 0 0 1.4-5.5c2.67-1 7.55-3.1 9.83-7.3 2.36-4.39 3.39-9.5 4-12.55l.3-1.49a1 1 0 0 0-.17-.91Zm-5.9 13.9c-2.1 3.79-6.9 5.65-9.22 6.55l-.31.12a1 1 0 0 0-.62 1.1 6.18 6.18 0 0 1-.94 4.8 7.15 7.15 0 0 1-2.47 2.07c.65-1.72.8-3.6.44-5.4a1 1 0 0 0-1-.78.58.58 0 0 0-.23 0l-5.74 1.27-1.63-1.47 1.89-5.23a1 1 0 0 0-.21-1c-1.35-1.46-3.55-1.28-5.55-.61A7.46 7.46 0 0 1 15.2 17a1 1 0 0 0 1.1-.51 20.64 20.64 0 0 1 5.9-6.62 21.22 21.22 0 0 1 6.48-2.85 10.27 10.27 0 0 0 6.4 7 28.7 28.7 0 0 1-1.78 4.24Zm3.84-12a69.64 69.64 0 0 1-1.38 5.86 8.25 8.25 0 0 1-5.07-5.53c2.15-.38 4.33-.58 6.52-.62l-.07.29ZM4.54 36.65a1 1 0 0 1-.71-.3 1 1 0 0 1 0-1.41l3.13-3.09a1 1 0 1 1 1.41 1.42l-3.16 3.09a1 1 0 0 1-.67.29ZM4 32.56a1 1 0 0 1-.7-.3 1 1 0 0 1 0-1.41l3.13-3.09a1 1 0 0 1 1.43 0 1 1 0 0 1 0 1.44l-3.14 3.07a1 1 0 0 1-.71.29Zm4.51 4.55a1 1 0 0 1-.7-1.71l3.13-3.1a1 1 0 0 1 1.72.71 1 1 0 0 1-.3.71l-3.15 3.11a1 1 0 0 1-.7.28Z"></path></g><g class="css-bvxv3d"><path d="M24.09 25.91c1.07 6.18-4.27 8.56-7.07 9 2.56-1.9 2.5-5.53 2.14-7.11l-6.22 1.36-2.51-2.26 2.07-5.84c-1.65-1.8-5.4-.16-7.07.89a8.5 8.5 0 0 1 10-5.84 21.82 21.82 0 0 1 6.24-7c6.24-4.16 13.81-4 16.75-4.09-.58 2.52-1.48 8.68-4.26 13.79-2.36 4.27-7.83 6.23-10.07 7.1Z" fill="#00A832"></path><path d="M37.5 13.16c.76-2.47 1.22-4.77 1.56-6.45l.3-1.49a1 1 0 0 0-1-1.22h-.91c-2.64.03-5.27.3-7.86.82-.15 0-.22.17-.37.21l-1.42.31h-.16c-2.3.62-4.5 1.61-6.5 2.92a22.73 22.73 0 0 0-6.25 6.73 9.44 9.44 0 0 0-10.4 6.6 1 1 0 0 0 1.47 1.17c1.57-1 4.06-1.92 5.35-1.37l-1.82 5.14a1 1 0 0 0 .27 1.08l2.5 2.26a1 1 0 0 0 .94.29l5.16-1.13c.09 1.49-.17 3.81-1.9 5.1a1 1 0 0 0 .6 1.8h.14a10.3 10.3 0 0 0 6.62-3.81 7.82 7.82 0 0 0 1.4-5.5c2.67-1 7.55-3.1 9.83-7.3a27.4 27.4 0 0 0 1.56-3.4l.9-2.76Zm-.37-6.79c-.32 1.58-.75 3.73-1.43 6-.2.63-.4 1.28-.63 1.93a26.89 26.89 0 0 1-1.77 4c-2.07 3.79-6.91 5.65-9.23 6.55l-.31.12a1 1 0 0 0-.62 1.1 6.1 6.1 0 0 1-.94 4.8 7 7 0 0 1-2.47 2.07c.66-1.72.81-3.6.44-5.4a1 1 0 0 0-1-.78.74.74 0 0 0-.21 0l-5.76 1.2-1.63-1.39 1.85-5.21a1 1 0 0 0-.21-1c-1.35-1.46-3.58-1.28-5.55-.61a7.49 7.49 0 0 1 7.54-2.69 1 1 0 0 0 1.1-.51 20.88 20.88 0 0 1 5.9-6.62 21.32 21.32 0 0 1 6.17-2.77 24.1 24.1 0 0 1 2-.47 40 40 0 0 1 6.83-.66l-.07.34Z" fill="#00A832"></path><path d="M26.59 18.11a3 3 0 1 0 0-6 3 3 0 0 0 0 6Z" fill="#fff"></path><path d="M26.58 19.16a4 4 0 1 1 0-8 4 4 0 0 1 0 8Zm0-6a2 2 0 1 0 0 4 2 2 0 0 0 0-4Zm3-8.34a11.77 11.77 0 0 0 .75 1.93 12.86 12.86 0 0 0 6.23 6.09c.3.13.62.26.93.37v.16c-.17.57-.37 1.16-.58 1.75a12.3 12.3 0 0 1-.91-.36 14.86 14.86 0 0 1-7.97-8.46c-.13-.32-.24-.64-.33-.94" fill="#5A1F06"></path><path d="M8.36 31.91a1 1 0 0 1 0 1.41L5.2 36.41a1 1 0 1 1-1.5-1.31l.1-.11 3.13-3.09a1 1 0 0 1 1.43.01Zm-.52-4.09a1 1 0 0 1 0 1.41L4.7 32.32a1 1 0 1 1-1.4-1.42l3.13-3.09a1 1 0 0 1 1.41.01Zm4.5 4.55a1 1 0 0 1 0 1.41l-3.14 3.1a1 1 0 0 1-1.4-1.42l3.13-3.1a1 1 0 0 1 1.42 0l-.01.01Z" fill="#5A1F06"></path></g></svg>