<svg fill="none" focusable="false" height="24" role="img" viewBox="0 0 24 24" width="24" xmlns="http://www.w3.org/2000/svg" xmlns:xlink="http://www.w3.org/1999/xlink" class="css-1brxmv5" aria-labelledby="e9a00989-88ff-49d5-9a71-0f64c5ae64f3"><defs><symbol id="external" viewBox="0 0 24 24">
      <path fill="currentColor" d="M0 5.1c0-.7.5-1.2 1.2-1.2H10c.7 0 1.2.5 1.2 1.2s-.5 1.2-1.2 1.2H2.4v15H18v-6.4c0-.7.5-1.2 1.2-1.2s1.2.5 1.2 1.2v7.6c0 .7-.5 1.2-1.2 1.2h-18c-.7 0-1.2-.5-1.2-1.2V5.1z"></path>
      <path fill="currentColor" d="M23.9 1c-.1-.3-.4-.5-.6-.6-.1-.1-.3-.1-.5-.1h-7.2c-.7 0-1.2.5-1.2 1.2s.5 1.2 1.2 1.2h4.3L7.5 15.3c-.5.5-.5 1.2 0 1.7s1.2.5 1.7 0L21.6 4.4v4.3c0 .7.5 1.2 1.2 1.2S24 9.4 24 8.7V1.5c0-.2 0-.3-.1-.5z"></path>
    </symbol></defs><title id="e9a00989-88ff-49d5-9a71-0f64c5ae64f3">(opens in a new tab)</title><g fill="none">
      <path fill="currentColor" d="M0 5.1c0-.7.5-1.2 1.2-1.2H10c.7 0 1.2.5 1.2 1.2s-.5 1.2-1.2 1.2H2.4v15H18v-6.4c0-.7.5-1.2 1.2-1.2s1.2.5 1.2 1.2v7.6c0 .7-.5 1.2-1.2 1.2h-18c-.7 0-1.2-.5-1.2-1.2V5.1z"></path>
      <path fill="currentColor" d="M23.9 1c-.1-.3-.4-.5-.6-.6-.1-.1-.3-.1-.5-.1h-7.2c-.7 0-1.2.5-1.2 1.2s.5 1.2 1.2 1.2h4.3L7.5 15.3c-.5.5-.5 1.2 0 1.7s1.2.5 1.7 0L21.6 4.4v4.3c0 .7.5 1.2 1.2 1.2S24 9.4 24 8.7V1.5c0-.2 0-.3-.1-.5z"></path>
    </g></svg>