<svg fill="#5a1f06" focusable="false" height="24" role="img" viewBox="0 0 24 24" width="24" xmlns="http://www.w3.org/2000/svg" xmlns:xlink="http://www.w3.org/1999/xlink" class="css-84d4bu" aria-labelledby="75b0d0d6-74ca-4110-a56a-fb80374ef6a9"><defs><symbol id="close" viewBox="0 0 24 24">
      <path fill="#5a1f06" d="M20.85 4.56a1 1 0 0 0-1.41-1.41L12 10.59 4.56 3.15a1 1 0 0 0-1.41 1.41L10.59 12l-7.44 7.44a1 1 0 1 0 1.41 1.41L12 13.41l7.44 7.44a1 1 0 0 0 1.41-1.41L13.41 12l7.44-7.44Z"></path>
    </symbol></defs><title id="75b0d0d6-74ca-4110-a56a-fb80374ef6a9">close menu</title><g fill="none">
      <path fill="#5a1f06" d="M20.85 4.56a1 1 0 0 0-1.41-1.41L12 10.59 4.56 3.15a1 1 0 0 0-1.41 1.41L10.59 12l-7.44 7.44a1 1 0 1 0 1.41 1.41L12 13.41l7.44 7.44a1 1 0 0 0 1.41-1.41L13.41 12l7.44-7.44Z"></path>
    </g></svg>