<svg xmlns:xlink="http://www.w3.org/1999/xlink" aria-hidden="true" focusable="false" height="27" width="54" xmlns="http://www.w3.org/2000/svg"><path d="M0 27C0 12.1 12.1 0 27 0s27 12.1 27 27m-4 0C50 14.3 39.7 4 27.1 4S4 14.3 4 27" fill="#FFC51A"></path><path d="M8.1 27C8.1 16.6 16.6 8.1 27 8.1S45.9 16.6 45.9 27m-4 0c0-8.2-6.6-14.9-14.9-14.9S12.2 18.8 12.2 27" fill="#1CA44B"></path><path d="M37.8 27H16.2c.1-6 5.1-10.7 11-10.6 5.8.1 10.5 4.8 10.6 10.6zm-4 0c0-3.7-3-6.8-6.8-6.8s-6.8 3-6.8 6.8h13.6z" fill="#F26823"></path></svg>