<svg aria-hidden="true" fill="none" focusable="false" height="24" viewBox="0 0 24 24" width="24" xmlns="http://www.w3.org/2000/svg" xmlns:xlink="http://www.w3.org/1999/xlink" class="css-84d4bu"><defs><symbol id="search" viewBox="0 0 24 24">
      <path fill="currentColor" d="m22.8 20.7-4.6-4.6c1.1-1.6 1.8-3.5 1.8-5.6C20 5.3 15.7 1 10.5 1S1 5.3 1 10.5 5.3 20 10.5 20c2.1 0 4-.7 5.6-1.8l4.6 4.6c.6.6 1.5.6 2.1 0s.6-1.5 0-2.1zM10.5 18C6.4 18 3 14.6 3 10.5S6.4 3 10.5 3 18 6.4 18 10.5 14.6 18 10.5 18z"></path>
    </symbol></defs><g fill="none">
      <path fill="#5a1f06" d="m22.8 20.7-4.6-4.6c1.1-1.6 1.8-3.5 1.8-5.6C20 5.3 15.7 1 10.5 1S1 5.3 1 10.5 5.3 20 10.5 20c2.1 0 4-.7 5.6-1.8l4.6 4.6c.6.6 1.5.6 2.1 0s.6-1.5 0-2.1zM10.5 18C6.4 18 3 14.6 3 10.5S6.4 3 10.5 3 18 6.4 18 10.5 14.6 18 10.5 18z"></path>
    </g></svg>