<svg xmlns="http://www.w3.org/2000/svg"><symbol id="32194"><g class="css-oro983"><path d="M37.07 23.83c-1 .18-5.73.22-11.24.19a5 5 0 0 0-9.83-.08l-6.77-.08H4.86A3.35 3.35 0 0 1 2 21.76v3.12a4.6 4.6 0 0 0 2.84.95h4.34l6.78.08a5 5 0 0 0 9.87.07h2.38c4.82 0 8.28-.06 9.25-.23A6.77 6.77 0 0 0 40 24.69v-2.91a4.46 4.46 0 0 1-2.93 2.05Zm-13.33 2.18a3 3 0 0 1-5.86-.93 3 3 0 0 1 5.84-1 2.69 2.69 0 0 1 .02 1.93Z"></path><path d="M2 9.01v27a2 2 0 0 0 2 2h34a2 2 0 0 0 2-2v-27H2Zm36 27H4v-25h34v25Z"></path><path d="M14 5v4h14V5H14Zm-1-2a1 1 0 0 0-1 1v6a1 1 0 0 0 1 1h16a1 1 0 0 0 1-1V4a1 1 0 0 0-1-1H13Z" fill-rule="evenodd"></path></g></symbol><use xlink:href="#32194"></use></svg>