<svg fill="none" focusable="false" height="24" role="img" viewBox="0 0 24 24" width="24" xmlns="http://www.w3.org/2000/svg" xmlns:xlink="http://www.w3.org/1999/xlink" class="css-npdrhf" aria-labelledby="ff5ab9fd-905f-4079-89f8-68f84bd692a2"><defs><symbol id="mixYourFlavors" viewBox="0 0 24 24">
      <path fill="#FFD200" d="M7.97.68s5.79-.74 7.27 7.2c0 0 .75 3.96-1.08 8.01a4.73 4.73 0 0 1-6.4 2.62c-1.32-.69-3.61-2.73-4.53-7.6C2.3 6.04 2.78.96 7.97.68Z"></path>
      <path fill="#D60000" d="M11.97 15s1.84-5.27 7.8-3.3c5.96 1.95 3.92 7.27 3.78 7.7-.14.43-1.84 5.56-7.6 3.74-5.78-1.82-4.55-6.38-3.98-8.14Z"></path>
      <path fill="#0D73E0" d="M14.62 19.25a7.36 7.36 0 0 1-9.66 4.1 7.56 7.56 0 0 1-4.4-9.66l14.06 5.56Z"></path>
      <path fill="#fff" d="m7.68 22.25.65-1.79s.37-.84-.74-1.26c-.68-.26-1-.04-1-.04s-.29-.76-1.24-.56l.07-.2-1.02-.38-.3.86s.2.09.1.36l-.52 1.45s-.03.2-.3.18l-.22.6 1.18.45.21-.6s-.21-.14-.14-.33l.55-1.51s.1-.31.51-.15c.42.16.37.4.31.55l-.82 2.28 1.09.41.22-.6s-.27-.12-.2-.32l.56-1.52s.1-.33.5-.17c.42.15.42.3.33.56l-.83 2.27.99.38.23-.63s-.24-.08-.17-.29"></path>
      <path fill="#52210D" d="M14.7 18.96c-.67 1.72-4.35 1.89-8.23.37C2.59 17.81-.02 15.2.65 13.47c.66-1.72 4.34-1.88 8.22-.36 3.88 1.51 6.5 4.13 5.82 5.85Z"></path>
      <path fill="#8F6138" d="M12.94 18.18c-.4 1.05-3.07.98-5.96-.15-2.88-1.13-4.9-2.9-4.49-3.95.4-1.05 3.07-.99 5.96.14 2.88 1.14 4.9 2.9 4.5 3.96Z"></path>
      <path fill="#fff" d="M20.15 18.41v-1.9s.05-.92-1.1-.92c-.73 0-.95.31-.95.31s-.52-.6-1.33-.08v-.2H15.7v.9s.22.02.22.31v1.54s.04.2-.22.27v.64h1.24v-.64s-.24-.06-.24-.26v-1.6s-.02-.33.42-.33c.45 0 .47.24.47.4v2.44h1.15v-.65s-.28-.01-.28-.23V16.8s-.01-.35.41-.35c.43 0 .49.15.49.42v2.42h1.03v-.67s-.24 0-.24-.21"></path>
      <path fill="#5A1F06" d="m11.49 9.34-.28-1.92s-.08-.94-1.3-.76c-.75.1-.93.46-.93.46s-.64-.54-1.41.11l-.03-.2-1.12.16.13.92s.23-.02.28.28l.22 1.54s.08.2-.19.31l.1.65 1.3-.18-.1-.64s-.26-.03-.3-.23l-.23-1.63s-.06-.32.4-.39c.47-.07.53.17.56.34l.35 2.45 1.2-.18-.09-.65s-.3.04-.33-.19L9.5 7.97s-.07-.35.38-.41c.45-.07.53.07.57.34l.36 2.44 1.07-.15-.1-.68s-.25.05-.28-.17"></path>
    </symbol></defs><title id="ff5ab9fd-905f-4079-89f8-68f84bd692a2">mix your M&amp;M’S Peanut</title><g fill="none">
      <path fill="#FFD200" d="M7.97.68s5.79-.74 7.27 7.2c0 0 .75 3.96-1.08 8.01a4.73 4.73 0 0 1-6.4 2.62c-1.32-.69-3.61-2.73-4.53-7.6C2.3 6.04 2.78.96 7.97.68Z"></path>
      <path fill="#D60000" d="M11.97 15s1.84-5.27 7.8-3.3c5.96 1.95 3.92 7.27 3.78 7.7-.14.43-1.84 5.56-7.6 3.74-5.78-1.82-4.55-6.38-3.98-8.14Z"></path>
      <path fill="#0D73E0" d="M14.62 19.25a7.36 7.36 0 0 1-9.66 4.1 7.56 7.56 0 0 1-4.4-9.66l14.06 5.56Z"></path>
      <path fill="#fff" d="m7.68 22.25.65-1.79s.37-.84-.74-1.26c-.68-.26-1-.04-1-.04s-.29-.76-1.24-.56l.07-.2-1.02-.38-.3.86s.2.09.1.36l-.52 1.45s-.03.2-.3.18l-.22.6 1.18.45.21-.6s-.21-.14-.14-.33l.55-1.51s.1-.31.51-.15c.42.16.37.4.31.55l-.82 2.28 1.09.41.22-.6s-.27-.12-.2-.32l.56-1.52s.1-.33.5-.17c.42.15.42.3.33.56l-.83 2.27.99.38.23-.63s-.24-.08-.17-.29"></path>
      <path fill="#52210D" d="M14.7 18.96c-.67 1.72-4.35 1.89-8.23.37C2.59 17.81-.02 15.2.65 13.47c.66-1.72 4.34-1.88 8.22-.36 3.88 1.51 6.5 4.13 5.82 5.85Z"></path>
      <path fill="#8F6138" d="M12.94 18.18c-.4 1.05-3.07.98-5.96-.15-2.88-1.13-4.9-2.9-4.49-3.95.4-1.05 3.07-.99 5.96.14 2.88 1.14 4.9 2.9 4.5 3.96Z"></path>
      <path fill="#fff" d="M20.15 18.41v-1.9s.05-.92-1.1-.92c-.73 0-.95.31-.95.31s-.52-.6-1.33-.08v-.2H15.7v.9s.22.02.22.31v1.54s.04.2-.22.27v.64h1.24v-.64s-.24-.06-.24-.26v-1.6s-.02-.33.42-.33c.45 0 .47.24.47.4v2.44h1.15v-.65s-.28-.01-.28-.23V16.8s-.01-.35.41-.35c.43 0 .49.15.49.42v2.42h1.03v-.67s-.24 0-.24-.21"></path>
      <path fill="#5A1F06" d="m11.49 9.34-.28-1.92s-.08-.94-1.3-.76c-.75.1-.93.46-.93.46s-.64-.54-1.41.11l-.03-.2-1.12.16.13.92s.23-.02.28.28l.22 1.54s.08.2-.19.31l.1.65 1.3-.18-.1-.64s-.26-.03-.3-.23l-.23-1.63s-.06-.32.4-.39c.47-.07.53.17.56.34l.35 2.45 1.2-.18-.09-.65s-.3.04-.33-.19L9.5 7.97s-.07-.35.38-.41c.45-.07.53.07.57.34l.36 2.44 1.07-.15-.1-.68s-.25.05-.28-.17"></path>
    </g></svg>