<svg aria-hidden="true" fill="none" focusable="false" height="24" viewBox="0 0 24 24" width="24" xmlns="http://www.w3.org/2000/svg" xmlns:xlink="http://www.w3.org/1999/xlink" class="css-1q17z3x"><defs><symbol id="chevronRight" viewBox="0 0 24 24">
      <path fill="#5a1f06" d="M17.62 11.06c.5.52.5 1.36 0 1.88l-8.4 8.67c-.5.52-1.33.52-1.84 0-.5-.52-.5-1.37 0-1.89L14.86 12 7.38 4.28c-.5-.52-.5-1.37 0-1.89.5-.52 1.33-.52 1.84 0l8.4 8.67Z"></path>
    </symbol></defs><g fill="none">
      <path fill="#5a1f06" d="M17.62 11.06c.5.52.5 1.36 0 1.88l-8.4 8.67c-.5.52-1.33.52-1.84 0-.5-.52-.5-1.37 0-1.89L14.86 12 7.38 4.28c-.5-.52-.5-1.37 0-1.89.5-.52 1.33-.52 1.84 0l8.4 8.67Z"></path>
    </g></svg>