<svg aria-hidden="true" fill="#5a1f06" focusable="false" height="24" viewBox="0 0 24 24" width="24" xmlns="http://www.w3.org/2000/svg" xmlns:xlink="http://www.w3.org/1999/xlink" class="css-npdrhf"><defs><symbol id="facebook" viewBox="0 0 24 24">
      <path fill="#5a1f06" d="M17.83 2h-2.95a4.96 4.96 0 0 0-4.93 5v3H7v4h2.95v8h3.94v-8h2.96l.98-4H13.9V7a1 1 0 0 1 .99-1h2.95V2Z"></path>
    </symbol></defs><g fill="none">
      <path fill="#5a1f06" d="M17.83 2h-2.95a4.96 4.96 0 0 0-4.93 5v3H7v4h2.95v8h3.94v-8h2.96l.98-4H13.9V7a1 1 0 0 1 .99-1h2.95V2Z"></path>
    </g></svg>