<svg aria-hidden="true" fill="none" focusable="false" height="24" viewBox="0 0 24 24" width="24" xmlns="http://www.w3.org/2000/svg" xmlns:xlink="http://www.w3.org/1999/xlink" class="css-npdrhf"><defs><symbol id="instagram" viewBox="0 0 24 24">
      <path fill="#5a1f06" d="M17.34 5.46a1.2 1.2 0 1 0 0 2.4 1.2 1.2 0 0 0 0-2.4Zm4.6 2.42a7.59 7.59 0 0 0-.46-2.43 4.94 4.94 0 0 0-1.16-1.77 4.7 4.7 0 0 0-1.77-1.15 7.3 7.3 0 0 0-2.43-.47C15.06 2 14.72 2 12 2s-3.06 0-4.12.06a7.3 7.3 0 0 0-2.43.47c-.67.25-1.27.64-1.77 1.15-.51.5-.9 1.1-1.15 1.77a7.3 7.3 0 0 0-.47 2.43C2 8.94 2 9.28 2 12s0 3.06.06 4.12c.02.83.18 1.65.47 2.43a4.7 4.7 0 0 0 1.15 1.77c.5.51 1.1.9 1.77 1.15.78.3 1.6.45 2.43.47C8.94 22 9.28 22 12 22s3.06 0 4.12-.06a7.3 7.3 0 0 0 2.43-.47 4.7 4.7 0 0 0 1.77-1.15 5 5 0 0 0 1.16-1.77c.29-.78.44-1.6.46-2.43 0-1.06.06-1.4.06-4.12s0-3.06-.06-4.12ZM20.14 16a5.6 5.6 0 0 1-.34 1.86c-.16.44-.42.83-.75 1.15a3.2 3.2 0 0 1-1.15.75 5.6 5.6 0 0 1-1.86.34 65 65 0 0 1-4 .06c-2.63 0-3 0-4-.06a5.73 5.73 0 0 1-1.94-.3 3.27 3.27 0 0 1-1.1-.75 3 3 0 0 1-.74-1.15 5.54 5.54 0 0 1-.4-1.9c0-1-.06-1.37-.06-4s0-3 .06-4c0-.65.12-1.3.35-1.9A3 3 0 0 1 5 5c.3-.34.68-.62 1.1-.8A5.73 5.73 0 0 1 8 3.86c1 0 1.37-.06 4-.06s3 0 4 .06c.63 0 1.26.12 1.86.34.45.17.86.44 1.19.8a3 3 0 0 1 .75 1.1c.22.6.34 1.25.34 1.9a65 65 0 0 1 .06 4 65 65 0 0 1-.06 4ZM12 6.87a5.13 5.13 0 1 0 .02 10.26A5.13 5.13 0 0 0 12 6.87Zm0 8.46a3.33 3.33 0 1 1 0-6.66 3.33 3.33 0 0 1 0 6.66Z"></path>
    </symbol></defs><g fill="none">
      <path fill="#5a1f06" d="M17.34 5.46a1.2 1.2 0 1 0 0 2.4 1.2 1.2 0 0 0 0-2.4Zm4.6 2.42a7.59 7.59 0 0 0-.46-2.43 4.94 4.94 0 0 0-1.16-1.77 4.7 4.7 0 0 0-1.77-1.15 7.3 7.3 0 0 0-2.43-.47C15.06 2 14.72 2 12 2s-3.06 0-4.12.06a7.3 7.3 0 0 0-2.43.47c-.67.25-1.27.64-1.77 1.15-.51.5-.9 1.1-1.15 1.77a7.3 7.3 0 0 0-.47 2.43C2 8.94 2 9.28 2 12s0 3.06.06 4.12c.02.83.18 1.65.47 2.43a4.7 4.7 0 0 0 1.15 1.77c.5.51 1.1.9 1.77 1.15.78.3 1.6.45 2.43.47C8.94 22 9.28 22 12 22s3.06 0 4.12-.06a7.3 7.3 0 0 0 2.43-.47 4.7 4.7 0 0 0 1.77-1.15 5 5 0 0 0 1.16-1.77c.29-.78.44-1.6.46-2.43 0-1.06.06-1.4.06-4.12s0-3.06-.06-4.12ZM20.14 16a5.6 5.6 0 0 1-.34 1.86c-.16.44-.42.83-.75 1.15a3.2 3.2 0 0 1-1.15.75 5.6 5.6 0 0 1-1.86.34 65 65 0 0 1-4 .06c-2.63 0-3 0-4-.06a5.73 5.73 0 0 1-1.94-.3 3.27 3.27 0 0 1-1.1-.75 3 3 0 0 1-.74-1.15 5.54 5.54 0 0 1-.4-1.9c0-1-.06-1.37-.06-4s0-3 .06-4c0-.65.12-1.3.35-1.9A3 3 0 0 1 5 5c.3-.34.68-.62 1.1-.8A5.73 5.73 0 0 1 8 3.86c1 0 1.37-.06 4-.06s3 0 4 .06c.63 0 1.26.12 1.86.34.45.17.86.44 1.19.8a3 3 0 0 1 .75 1.1c.22.6.34 1.25.34 1.9a65 65 0 0 1 .06 4 65 65 0 0 1-.06 4ZM12 6.87a5.13 5.13 0 1 0 .02 10.26A5.13 5.13 0 0 0 12 6.87Zm0 8.46a3.33 3.33 0 1 1 0-6.66 3.33 3.33 0 0 1 0 6.66Z"></path>
    </g></svg>