<svg aria-hidden="true" fill="none" focusable="false" height="24" viewBox="0 0 24 24" width="24" xmlns="http://www.w3.org/2000/svg" xmlns:xlink="http://www.w3.org/1999/xlink" class="css-npdrhf"><defs><symbol id="pinterest" viewBox="0 0 24 24">
      <path fill="#5a1f06" d="M22 12a10 10 0 0 1-12.96 9.55c.4-.66 1.02-1.75 1.24-2.62l.62-2.38c.33.62 1.28 1.15 2.3 1.15 3.01 0 5.18-2.77 5.18-6.22 0-3.3-2.7-5.77-6.16-5.77-4.32 0-6.61 2.9-6.61 6.05 0 1.47.78 3.3 2.03 3.87.19.1.29.05.33-.13l.28-1.13a.3.3 0 0 0-.07-.29c-.4-.5-.74-1.42-.74-2.28 0-2.2 1.67-4.34 4.52-4.34 2.46 0 4.18 1.67 4.18 4.07 0 2.7-1.37 4.58-3.15 4.58-.98 0-1.72-.81-1.48-1.8.28-1.2.83-2.48.83-3.34 0-.76-.41-1.4-1.27-1.4-1 0-1.8 1.03-1.8 2.42 0 .89.29 1.49.29 1.49l-1.17 4.96a9.9 9.9 0 0 0-.04 2.87A10 10 0 1 1 22 12Z"></path>
    </symbol></defs><g fill="none">
      <path fill="#5a1f06" d="M22 12a10 10 0 0 1-12.96 9.55c.4-.66 1.02-1.75 1.24-2.62l.62-2.38c.33.62 1.28 1.15 2.3 1.15 3.01 0 5.18-2.77 5.18-6.22 0-3.3-2.7-5.77-6.16-5.77-4.32 0-6.61 2.9-6.61 6.05 0 1.47.78 3.3 2.03 3.87.19.1.29.05.33-.13l.28-1.13a.3.3 0 0 0-.07-.29c-.4-.5-.74-1.42-.74-2.28 0-2.2 1.67-4.34 4.52-4.34 2.46 0 4.18 1.67 4.18 4.07 0 2.7-1.37 4.58-3.15 4.58-.98 0-1.72-.81-1.48-1.8.28-1.2.83-2.48.83-3.34 0-.76-.41-1.4-1.27-1.4-1 0-1.8 1.03-1.8 2.42 0 .89.29 1.49.29 1.49l-1.17 4.96a9.9 9.9 0 0 0-.04 2.87A10 10 0 1 1 22 12Z"></path>
    </g></svg>