<svg aria-hidden="true" fill="none" focusable="false" height="24" viewBox="0 0 24 24" width="24" xmlns="http://www.w3.org/2000/svg" xmlns:xlink="http://www.w3.org/1999/xlink" class="css-npdrhf"><defs><symbol id="twitter" viewBox="0 0 24 24">
      <path fill="#5a1f06" d="M22 4.01a9.75 9.75 0 0 1-2.85 1.45 3.96 3.96 0 0 0-4.53-1.18A4.25 4.25 0 0 0 12 8.3v.95a9.57 9.57 0 0 1-8.18-4.3S.18 13.49 8.36 17.28A10.27 10.27 0 0 1 2 19.17c8.18 4.74 18.18 0 18.18-10.9 0-.26-.02-.52-.07-.78A7.4 7.4 0 0 0 22 4Z"></path>
    </symbol></defs><g fill="none">
      <path fill="#5a1f06" d="M22 4.01a9.75 9.75 0 0 1-2.85 1.45 3.96 3.96 0 0 0-4.53-1.18A4.25 4.25 0 0 0 12 8.3v.95a9.57 9.57 0 0 1-8.18-4.3S.18 13.49 8.36 17.28A10.27 10.27 0 0 1 2 19.17c8.18 4.74 18.18 0 18.18-10.9 0-.26-.02-.52-.07-.78A7.4 7.4 0 0 0 22 4Z"></path>
    </g></svg>