<svg aria-hidden="true" fill="none" focusable="false" height="24" viewBox="0 0 24 24" width="24" xmlns="http://www.w3.org/2000/svg" xmlns:xlink="http://www.w3.org/1999/xlink" class="css-npdrhf"><defs><symbol id="youtube" viewBox="0 0 24 24">
      <path fill="#5a1f06" d="M21.86 17.5a2.74 2.74 0 0 1-1.82 2.02C18.44 20 12 20 12 20s-6.43 0-8.04-.48a2.74 2.74 0 0 1-1.82-2.02c-.43-1.79-.43-5.52-.43-5.52s0-3.72.43-5.5a2.7 2.7 0 0 1 1.82-2C5.56 4 12 4 12 4s6.43 0 8.04.48c.88.26 1.58 1 1.82 2 .43 1.78.43 5.5.43 5.5s0 3.73-.43 5.52ZM9.7 8.57v6.86L15.43 12 9.71 8.57Z"></path>
    </symbol></defs><g fill="none">
      <path fill="#5a1f06" d="M21.86 17.5a2.74 2.74 0 0 1-1.82 2.02C18.44 20 12 20 12 20s-6.43 0-8.04-.48a2.74 2.74 0 0 1-1.82-2.02c-.43-1.79-.43-5.52-.43-5.52s0-3.72.43-5.5a2.7 2.7 0 0 1 1.82-2C5.56 4 12 4 12 4s6.43 0 8.04.48c.88.26 1.58 1 1.82 2 .43 1.78.43 5.5.43 5.5s0 3.73-.43 5.52ZM9.7 8.57v6.86L15.43 12 9.71 8.57Z"></path>
    </g></svg>